<?xml version="1.0" encoding="UTF-8" standalone="no"?>
<svg
   xmlns:dc="http://purl.org/dc/elements/1.1/"
   xmlns:cc="http://creativecommons.org/ns#"
   xmlns:rdf="http://www.w3.org/1999/02/22-rdf-syntax-ns#"
   xmlns:svg="http://www.w3.org/2000/svg"
   xmlns="http://www.w3.org/2000/svg"
   xmlns:xlink="http://www.w3.org/1999/xlink"
   id="svg24"
   height="35px"
   width="35px"
   version="1.1">
  <metadata
     id="metadata28">
    <rdf:RDF>
      <cc:Work
         rdf:about="">
        <dc:format>image/svg+xml</dc:format>
        <dc:type
           rdf:resource="http://purl.org/dc/dcmitype/StillImage" />
      </cc:Work>
    </rdf:RDF>
  </metadata>
  <defs
     id="defs16">
    <filter
       id="filter167"
       filterUnits="userSpaceOnUse"
       height="35px"
       width="35px"
       y="445px"
       x="884px">
      <feOffset
         id="feOffset2"
         result="shadowOffsetInner"
         in="SourceAlpha"
         dy="3"
         dx="3" />
      <feGaussianBlur
         id="feGaussianBlur4"
         result="shadowGaussian"
         in="shadowOffsetInner"
         stdDeviation="2.5" />
      <feComposite
         id="feComposite6"
         result="shadowComposite"
         in="SourceAlpha"
         operator="atop"
         in2="shadowGaussian" />
      <feColorMatrix
         id="feColorMatrix8"
         in="shadowComposite"
         values="0 0 0 0 0.00784313725490196  0 0 0 0 0.00784313725490196  0 0 0 0 0.00784313725490196  0 0 0 0.349019607843137 0  "
         type="matrix" />
    </filter>
    <g
       id="widget168">
      <path
         id="path11"
         stroke="none"
         fill="#868585"
         fill-rule="nonzero"
         d="M 898.5 449  C 904.38 449  909 453.62  909 459.5  C 909 465.38  904.38 470  898.5 470  C 892.62 470  888 465.38  888 459.5  C 888 453.62  892.62 449  898.5 449  Z " />
      <path
         id="path13"
         fill="none"
         stroke="#b9b8b8"
         stroke-width="3"
         d="M 898.5 448.5  C 904.66 448.5  909.5 453.34  909.5 459.5  C 909.5 465.66  904.66 470.5  898.5 470.5  C 892.34 470.5  887.5 465.66  887.5 459.5  C 887.5 453.34  892.34 448.5  898.5 448.5  Z " />
    </g>
  </defs>
  <g
     id="g22"
     transform="matrix(1 0 0 1 -884 -445 )">
    <use
       id="use18"
       filter="url(#filter167)"
       xlink:href="#widget168" />
    <use
       id="use20"
       xlink:href="#widget168" />
  </g>
</svg>
