<?xml version="1.0" encoding="UTF-8" standalone="no"?>
<svg
   xmlns:dc="http://purl.org/dc/elements/1.1/"
   xmlns:cc="http://creativecommons.org/ns#"
   xmlns:rdf="http://www.w3.org/1999/02/22-rdf-syntax-ns#"
   xmlns:svg="http://www.w3.org/2000/svg"
   xmlns="http://www.w3.org/2000/svg"
   xmlns:xlink="http://www.w3.org/1999/xlink"
   id="svg24"
   height="35px"
   width="35px"
   version="1.1">
  <metadata
     id="metadata28">
    <rdf:RDF>
      <cc:Work
         rdf:about="">
        <dc:format>image/svg+xml</dc:format>
        <dc:type
           rdf:resource="http://purl.org/dc/dcmitype/StillImage" />
      </cc:Work>
    </rdf:RDF>
  </metadata>
  <defs
     id="defs16">
    <filter
       id="filter169"
       filterUnits="userSpaceOnUse"
       height="35px"
       width="35px"
       y="583px"
       x="1011px">
      <feOffset
         id="feOffset2"
         result="shadowOffsetInner"
         in="SourceAlpha"
         dy="3"
         dx="3" />
      <feGaussianBlur
         id="feGaussianBlur4"
         result="shadowGaussian"
         in="shadowOffsetInner"
         stdDeviation="2.5" />
      <feComposite
         id="feComposite6"
         result="shadowComposite"
         in="SourceAlpha"
         operator="atop"
         in2="shadowGaussian" />
      <feColorMatrix
         id="feColorMatrix8"
         in="shadowComposite"
         values="0 0 0 0 0.00784313725490196  0 0 0 0 0.00784313725490196  0 0 0 0 0.00784313725490196  0 0 0 0.349019607843137 0  "
         type="matrix" />
    </filter>
    <g
       id="widget170">
      <path
         id="path11"
         stroke="none"
         fill="#3c0557"
         fill-rule="nonzero"
         d="M 1025.5 587  C 1031.38 587  1036 591.62  1036 597.5  C 1036 603.38  1031.38 608  1025.5 608  C 1019.62 608  1015 603.38  1015 597.5  C 1015 591.62  1019.62 587  1025.5 587  Z " />
      <path
         id="path13"
         fill="none"
         stroke="#ffffff"
         stroke-width="3"
         d="M 1025.5 586.5  C 1031.66 586.5  1036.5 591.34  1036.5 597.5  C 1036.5 603.66  1031.66 608.5  1025.5 608.5  C 1019.34 608.5  1014.5 603.66  1014.5 597.5  C 1014.5 591.34  1019.34 586.5  1025.5 586.5  Z " />
    </g>
  </defs>
  <g
     id="g22"
     transform="matrix(1 0 0 1 -1011 -583 )">
    <use
       id="use18"
       filter="url(#filter169)"
       xlink:href="#widget170" />
    <use
       id="use20"
       xlink:href="#widget170" />
  </g>
</svg>
